<mxfile host="app.diagrams.net" agent="Mozilla/5.0 (Windows NT 10.0; Win64; x64) AppleWebKit/537.36 (KHTML, like Gecko) Chrome/135.0.0.0 Safari/537.36" version="28.0.6">
  <diagram name="Seite-1" id="tLXIKwma0Idv3vPYo2Qv">
    <mxGraphModel dx="708" dy="419" grid="1" gridSize="10" guides="1" tooltips="1" connect="1" arrows="1" fold="1" page="1" pageScale="1" pageWidth="1169" pageHeight="827" math="0" shadow="0">
      <root>
        <mxCell id="0" />
        <mxCell id="1" parent="0" />
        <mxCell id="RtjheDZ82Jtx4W11LPEf-1" value="&amp;nbsp;Background T.&lt;div&gt;Endpoint 1&lt;div&gt;Range Extender&lt;/div&gt;&lt;/div&gt;" style="html=1;dashed=0;whiteSpace=wrap;" vertex="1" parent="1">
          <mxGeometry x="250" y="80" width="100" height="80" as="geometry" />
        </mxCell>
        <mxCell id="RtjheDZ82Jtx4W11LPEf-2" value="&lt;div&gt;Lux Task&lt;/div&gt;Endpoint 2&lt;div&gt;Illuminance S.&lt;/div&gt;&lt;div&gt;OPT3004&lt;/div&gt;" style="html=1;dashed=0;whiteSpace=wrap;" vertex="1" parent="1">
          <mxGeometry x="390" y="80" width="100" height="80" as="geometry" />
        </mxCell>
        <mxCell id="RtjheDZ82Jtx4W11LPEf-3" value="&lt;div&gt;Temp Task&lt;/div&gt;Endpoint 3&lt;div&gt;Temperature S.&lt;/div&gt;&lt;div&gt;MTS4Z&lt;/div&gt;" style="html=1;dashed=0;whiteSpace=wrap;" vertex="1" parent="1">
          <mxGeometry x="530" y="80" width="100" height="80" as="geometry" />
        </mxCell>
        <mxCell id="RtjheDZ82Jtx4W11LPEf-4" value="&lt;div&gt;Temp and Humidity&lt;/div&gt;Endpoint 4&lt;div&gt;Temp and&amp;nbsp;&lt;span style=&quot;background-color: transparent; color: light-dark(rgb(0, 0, 0), rgb(255, 255, 255));&quot;&gt;Hum S.&lt;/span&gt;&lt;/div&gt;&lt;div&gt;&lt;div&gt;AHT21&lt;/div&gt;&lt;/div&gt;" style="html=1;dashed=0;whiteSpace=wrap;" vertex="1" parent="1">
          <mxGeometry x="670" y="80" width="100" height="80" as="geometry" />
        </mxCell>
        <mxCell id="RtjheDZ82Jtx4W11LPEf-5" value="Endpoint 5,&amp;nbsp;&lt;div&gt;&lt;br&gt;&lt;/div&gt;&lt;div&gt;-&lt;/div&gt;" style="html=1;dashed=0;whiteSpace=wrap;" vertex="1" parent="1">
          <mxGeometry x="250" y="190" width="100" height="50" as="geometry" />
        </mxCell>
        <mxCell id="RtjheDZ82Jtx4W11LPEf-6" value="Endpoint 2&lt;div&gt;Illuminance S.&lt;/div&gt;&lt;div&gt;OPT3004&lt;/div&gt;" style="html=1;dashed=0;whiteSpace=wrap;" vertex="1" parent="1">
          <mxGeometry x="390" y="190" width="100" height="50" as="geometry" />
        </mxCell>
        <mxCell id="RtjheDZ82Jtx4W11LPEf-7" value="Endpoint 3&lt;div&gt;Temperature S.&lt;/div&gt;&lt;div&gt;MTS4Z&lt;/div&gt;" style="html=1;dashed=0;whiteSpace=wrap;" vertex="1" parent="1">
          <mxGeometry x="530" y="190" width="100" height="50" as="geometry" />
        </mxCell>
        <mxCell id="RtjheDZ82Jtx4W11LPEf-8" value="Endpoint 4&lt;div&gt;Temp and Hum S.&lt;br&gt;&lt;div&gt;AHT21&lt;/div&gt;&lt;/div&gt;" style="html=1;dashed=0;whiteSpace=wrap;" vertex="1" parent="1">
          <mxGeometry x="670" y="190" width="100" height="50" as="geometry" />
        </mxCell>
        <mxCell id="RtjheDZ82Jtx4W11LPEf-9" value="Main Task&lt;div&gt;(reading Reset Button for Zigbee reset)&lt;/div&gt;" style="html=1;dashed=0;whiteSpace=wrap;" vertex="1" parent="1">
          <mxGeometry x="110" y="80" width="100" height="80" as="geometry" />
        </mxCell>
        <mxCell id="RtjheDZ82Jtx4W11LPEf-10" value="Task Monitor" style="html=1;dashed=0;whiteSpace=wrap;" vertex="1" parent="1">
          <mxGeometry x="110" y="190" width="100" height="80" as="geometry" />
        </mxCell>
        <mxCell id="RtjheDZ82Jtx4W11LPEf-11" value="Buzzer Task" style="html=1;dashed=0;whiteSpace=wrap;" vertex="1" parent="1">
          <mxGeometry x="110" y="300" width="100" height="80" as="geometry" />
        </mxCell>
        <mxCell id="RtjheDZ82Jtx4W11LPEf-12" value="Switches" style="html=1;dashed=0;whiteSpace=wrap;" vertex="1" parent="1">
          <mxGeometry x="250" y="300" width="100" height="80" as="geometry" />
        </mxCell>
        <mxCell id="RtjheDZ82Jtx4W11LPEf-13" value="Zigbee Main&lt;div&gt;(background task frome zigbee Lib.)&lt;/div&gt;&lt;div&gt;Endpoint 1&lt;/div&gt;&lt;div&gt;R&lt;/div&gt;" style="html=1;dashed=0;whiteSpace=wrap;" vertex="1" parent="1">
          <mxGeometry x="380" y="300" width="100" height="80" as="geometry" />
        </mxCell>
      </root>
    </mxGraphModel>
  </diagram>
</mxfile>
